<svg xmlns="http://www.w3.org/2000/svg" xmlns:xlink="http://www.w3.org/1999/xlink" width="1080" zoomAndPan="magnify" viewBox="0 0 810 809.999993" height="1080" preserveAspectRatio="xMidYMid meet" version="1.2"><g id="b0a8c95dd0"><rect x="0" width="810" y="0" height="809.999993" style="fill:#ffffff;fill-opacity:1;stroke:none;"/><rect x="0" width="810" y="0" height="809.999993" style="fill:#052659;fill-opacity:1;stroke:none;"/><path style=" stroke:none;fill-rule:evenodd;fill:#f5fbf9;fill-opacity:1;" d="M -53.167969 -51.761719 C -53.296875 -51.636719 -53.242188 154.441406 -53.046875 406.183594 L -52.691406 863.894531 L 863.894531 863.894531 L 863.894531 -50.597656 C 863.894531 -51.210938 -52.554688 -52.378906 -53.167969 -51.761719 M 342.976562 146.835938 C 336.019531 150.003906 331.375 154.976562 329.042969 161.75 C 326.96875 167.785156 327.667969 172.230469 330.6875 172.230469 C 335.109375 172.230469 342.726562 167.351562 345.847656 162.523438 C 349.339844 157.117188 351.757812 146.296875 349.75 145.058594 C 349.082031 144.644531 346.035156 145.445312 342.976562 146.835938 M 377.085938 147.609375 C 361.128906 151.683594 354.933594 166.746094 370.070312 164.671875 C 378.34375 163.539062 384.113281 160.292969 387.375 154.941406 C 392.871094 145.933594 390.433594 144.195312 377.085938 147.609375 M 426.683594 147.84375 C 426.683594 151.40625 432.277344 158.953125 436.964844 161.722656 C 439.21875 163.054688 444.28125 164.214844 448.273438 164.316406 C 454.851562 164.480469 455.546875 164.203125 455.96875 161.199219 C 456.90625 154.582031 447.167969 147.980469 434.0625 146.34375 C 427.660156 145.546875 426.683594 145.742188 426.683594 147.84375 M 469.894531 147.269531 C 468.800781 150.121094 470.929688 160.347656 473.40625 164.125 C 476.160156 168.332031 484.699219 172.925781 487.652344 171.792969 C 492.609375 169.890625 488.015625 154.539062 480.972656 149.460938 C 476.113281 145.953125 470.800781 144.90625 469.894531 147.269531 M 306.636719 158.304688 C 301.367188 162.453125 297.34375 171.0625 297.371094 178.148438 C 297.398438 186.292969 298.734375 188.167969 303.273438 186.441406 C 310.988281 183.507812 315.726562 171.574219 313.625 160.371094 C 312.535156 154.554688 311.714844 154.3125 306.636719 158.304688 M 503.265625 159.730469 C 500.742188 171.21875 503.300781 180.507812 510.554688 186.214844 C 514.003906 188.925781 514.546875 188.996094 516.554688 186.988281 C 518.03125 185.511719 518.742188 182.296875 518.695312 177.304688 C 518.636719 171.066406 517.808594 168.703125 513.679688 162.949219 C 507.578125 154.457031 504.625 153.542969 503.265625 159.730469 M 471.804688 172.628906 C 495.261719 183.460938 502.628906 187.59375 514.167969 196.375 C 542.789062 218.164062 563.671875 247.308594 576.945312 283.992188 C 584.28125 304.269531 587.300781 338.609375 584.28125 367.433594 C 579.625 411.898438 552.738281 460.988281 517.667969 489.050781 C 501.675781 501.84375 485.34375 511.230469 466.046875 518.714844 C 443.429688 527.484375 426.683594 537.417969 426.683594 542.0625 C 426.683594 545.519531 431.273438 544.660156 436.828125 540.160156 C 444.007812 534.347656 446.535156 533.023438 468.28125 523.691406 C 498.414062 510.761719 517.296875 498.175781 537.4375 477.59375 C 548.050781 466.75 549.292969 465.878906 551.496094 467.78125 C 557.34375 472.832031 569.960938 474.449219 580.621094 471.511719 C 583.714844 470.65625 589.296875 467.726562 593.027344 464.992188 C 600.703125 459.375 600.402344 458.277344 590.082031 454.300781 C 581.105469 450.84375 569.753906 451.296875 561.496094 455.445312 C 557.710938 457.347656 554.613281 458.390625 554.613281 457.765625 C 554.613281 457.140625 556.472656 454.0625 558.742188 450.925781 C 561.015625 447.789062 564.785156 441.527344 567.121094 437.007812 C 573.523438 424.617188 573.691406 424.433594 576.3125 426.609375 C 581.546875 430.953125 599.046875 427.828125 607.730469 420.996094 C 611.769531 417.820312 620.6875 405.960938 620.6875 403.769531 C 620.6875 402.980469 615.855469 402.6875 608.960938 403.046875 C 599.289062 403.554688 596.035156 404.363281 590.417969 407.65625 C 586.667969 409.855469 582.132812 413.234375 580.339844 415.171875 C 578.546875 417.105469 576.789062 418.398438 576.433594 418.046875 C 576.078125 417.691406 577.320312 413.636719 579.191406 409.039062 C 582.273438 401.46875 585.382812 390.710938 587.664062 379.738281 C 588.296875 376.683594 588.910156 376.070312 590.117188 377.277344 C 594.203125 381.363281 605.273438 377.101562 613.925781 368.109375 C 619.527344 362.289062 624.902344 351.273438 624.902344 345.621094 C 624.902344 342.394531 624.535156 342.191406 620.335938 343.101562 C 611.886719 344.929688 603.796875 349.65625 598.164062 356.054688 C 595.089844 359.550781 592.570312 363.234375 592.570312 364.242188 C 592.570312 365.246094 592.023438 366.40625 591.355469 366.816406 C 590.6875 367.230469 590.417969 358.90625 590.757812 348.273438 C 591.28125 331.765625 590.867188 326.441406 587.886719 311.40625 C 582.207031 282.742188 577.464844 269.8125 565.605469 250.664062 C 543.09375 214.3125 514.082031 188.84375 476.589844 172.515625 C 460.882812 165.679688 456.953125 165.769531 471.804688 172.628906 M 338.117188 173.171875 C 309.316406 184.96875 294.769531 194.679688 274.554688 215.59375 C 259.691406 230.972656 251.351562 242.972656 242.035156 262.378906 C 228.203125 291.199219 222.859375 314.847656 222.855469 347.253906 C 222.851562 369.386719 225.339844 385.472656 231.222656 401.378906 C 238.144531 420.082031 238.109375 419.574219 232.1875 414.390625 C 225.238281 408.304688 218.167969 404.855469 208.589844 402.878906 C 200.523438 401.214844 193.316406 401.96875 193.316406 404.476562 C 193.316406 406.582031 198.941406 414.242188 203.773438 418.726562 C 213.261719 427.523438 226.5625 431.351562 234.273438 427.503906 C 240.09375 424.597656 240.746094 424.679688 241.886719 428.441406 C 242.753906 431.304688 253.488281 449.453125 258.90625 457.222656 C 260.921875 460.109375 260.433594 460.015625 252.425781 456.015625 C 241.421875 450.515625 229.910156 450.1875 221.050781 455.121094 C 217.894531 456.878906 215.074219 459.050781 214.78125 459.953125 C 214.058594 462.175781 225.113281 469.59375 232.003906 471.507812 C 241.066406 474.023438 252.136719 473.4375 259.082031 470.074219 L 265.28125 467.070312 L 278.800781 480.265625 C 286.238281 487.523438 292.664062 493.78125 293.078125 494.171875 C 295.058594 496.035156 305.648438 503.691406 310.8125 506.996094 C 317.9375 511.554688 348.832031 526.492188 351.171875 526.511719 C 354.460938 526.539062 367.007812 533.1875 374.574219 538.910156 C 380.339844 543.273438 382.664062 544.316406 384.046875 543.164062 C 386.515625 541.117188 385.589844 539.941406 375.898438 532.804688 C 371.125 529.289062 361.183594 524.210938 352.503906 520.847656 C 336.996094 514.839844 320.144531 506.355469 306.902344 497.882812 C 295.671875 490.699219 273.839844 469.332031 264.574219 456.460938 C 254.695312 442.730469 242.828125 420.304688 237.089844 404.527344 C 229.207031 382.847656 227.761719 373.652344 227.761719 345.144531 C 227.761719 321.25 228.082031 317.878906 231.714844 303.613281 C 236.308594 285.582031 237.394531 283.222656 239.933594 285.761719 C 242.289062 288.117188 249.519531 287.964844 255.585938 285.429688 C 261.265625 283.058594 269.945312 273.1875 271.378906 267.46875 C 272.3125 263.753906 272.140625 263.609375 266.921875 263.640625 C 261.410156 263.671875 250.859375 267.679688 247.6875 270.945312 C 246.730469 271.9375 244.472656 274.839844 242.671875 277.398438 C 237.242188 285.121094 237.664062 281.390625 243.871094 266.847656 C 250.507812 251.292969 252.828125 248.050781 255.445312 250.664062 C 257.730469 252.949219 269.636719 252.816406 275.316406 250.445312 C 279.722656 248.605469 284.300781 244.089844 289.011719 236.949219 C 291.199219 233.632812 291.308594 233.75 302.273438 251.769531 C 308.347656 261.761719 315.328125 273.097656 317.777344 276.964844 C 320.230469 280.832031 330.644531 297.59375 340.925781 314.21875 C 351.203125 330.84375 360.558594 345.542969 361.714844 346.882812 C 364.054688 349.59375 364.507812 346.535156 355.707031 387.320312 C 344.460938 439.457031 340.914062 456.660156 341.320312 457.066406 C 341.554688 457.300781 356.265625 453.761719 374.007812 449.195312 L 406.265625 440.898438 L 422.449219 445.121094 C 463.535156 455.835938 470.730469 457.613281 471.167969 457.179688 C 471.828125 456.519531 465.402344 424.34375 455.574219 379.085938 C 452.828125 366.4375 450.582031 354.570312 450.582031 352.710938 C 450.582031 350.851562 453.347656 345.066406 456.726562 339.859375 C 464.519531 327.835938 468.496094 321.464844 497.675781 274.230469 C 510.820312 252.957031 521.914062 235.535156 522.328125 235.519531 C 522.742188 235.503906 524.234375 237.449219 525.648438 239.839844 C 529.589844 246.515625 539.820312 252.367188 547.507812 252.339844 C 555.648438 252.3125 558.214844 250.832031 556.292969 247.269531 C 552.355469 239.960938 540.984375 234.085938 530.773438 234.085938 C 527.90625 234.085938 525.191406 233.71875 524.742188 233.269531 C 524.292969 232.820312 525.4375 230.222656 527.289062 227.496094 C 529.890625 223.660156 530.332031 221.9375 529.226562 219.878906 C 527.179688 216.046875 523.703125 216.585938 517.328125 221.71875 C 499.863281 235.777344 443.433594 282.820312 430.199219 294.351562 C 425.996094 298.011719 412.601562 309.074219 408.195312 312.515625 C 406.199219 314.078125 404.460938 313.113281 395.546875 305.503906 C 389.863281 300.652344 384.894531 296.355469 384.507812 295.957031 C 384.121094 295.558594 378.113281 290.515625 371.152344 284.75 C 364.195312 278.988281 358.183594 273.902344 357.796875 273.449219 C 357.089844 272.617188 349.039062 265.8125 311.648438 234.4375 C 300.363281 224.964844 290.074219 217.21875 288.785156 217.21875 C 284.964844 217.21875 283.042969 220.605469 284.578125 224.640625 C 285.320312 226.59375 286.597656 228.605469 287.421875 229.113281 C 288.242188 229.621094 288.914062 230.945312 288.914062 232.0625 C 288.914062 233.515625 287.179688 234.085938 282.765625 234.085938 C 273.980469 234.085938 265.132812 237.621094 259.039062 243.570312 C 256.140625 246.398438 253.769531 248.097656 253.769531 247.34375 C 253.769531 244.761719 264.316406 229.980469 273.355469 219.898438 C 289.203125 202.226562 310.691406 186.523438 328.972656 179.261719 C 340.289062 174.765625 353.871094 168.097656 351.472656 168.210938 C 350.699219 168.246094 344.6875 170.480469 338.117188 173.171875 M 351.765625 171.695312 C 348.832031 172.953125 346.652344 174.695312 346.914062 175.566406 C 347.179688 176.4375 350.210938 178.617188 353.652344 180.410156 C 358.457031 182.914062 361.390625 183.507812 366.300781 182.972656 C 372.679688 182.273438 380.308594 179.546875 380.273438 177.980469 C 380.265625 177.523438 377.894531 175.621094 375.007812 173.75 C 368.417969 169.476562 358.898438 168.636719 351.765625 171.695312 M 444.664062 170.730469 C 442.574219 171.402344 438.8125 173.414062 436.316406 175.191406 L 431.769531 178.425781 L 437.308594 180.914062 C 440.359375 182.285156 445.40625 183.417969 448.527344 183.441406 C 454.179688 183.476562 466.214844 178.464844 467.035156 175.734375 C 468.230469 171.753906 452.449219 168.222656 444.664062 170.730469 M 275.082031 178.726562 C 267.976562 187.34375 266.554688 201.464844 272.117188 208.167969 C 273.65625 210.019531 274.292969 209.886719 277.308594 207.070312 C 282.648438 202.085938 284.695312 196.945312 284.695312 188.535156 C 284.695312 181.019531 282.542969 173.636719 280.355469 173.636719 C 279.761719 173.636719 277.390625 175.925781 275.082031 178.726562 M 532.292969 180.574219 C 530.652344 184.390625 529.308594 189.199219 529.308594 191.257812 C 529.308594 196.097656 532.796875 203.390625 537 207.339844 L 540.316406 210.453125 L 542.71875 206.785156 C 545.898438 201.933594 546.90625 192.054688 544.855469 185.839844 C 543.117188 180.566406 538.320312 173.636719 536.410156 173.636719 C 535.785156 173.636719 533.933594 176.757812 532.292969 180.574219 M 316.328125 188.703125 C 314.78125 189.078125 311.375 191 308.757812 192.972656 L 304.003906 196.558594 L 308.019531 198.664062 C 310.230469 199.820312 316.167969 201.050781 321.210938 201.398438 C 329.175781 201.941406 331.035156 201.582031 335.304688 198.667969 C 338.011719 196.824219 340.113281 194.746094 339.976562 194.050781 C 339.84375 193.355469 336.996094 191.675781 333.652344 190.320312 C 327.675781 187.894531 321.882812 187.355469 316.328125 188.703125 M 478.753906 190.28125 C 471.925781 193.945312 471.960938 195.761719 478.929688 198.925781 C 486.117188 202.1875 495.203125 202.53125 501.769531 199.789062 C 508.824219 196.839844 508.898438 195.238281 502.15625 191.289062 C 494.742188 186.945312 485.703125 186.554688 478.753906 190.28125 M 248.507812 202.085938 C 241.839844 210.4375 239.84375 226.378906 244.378906 235.050781 C 247.875 241.742188 249.050781 241.777344 253.71875 235.335938 C 257.289062 230.410156 257.984375 228.132812 257.984375 221.394531 C 257.984375 209.410156 252.152344 197.523438 248.507812 202.085938 M 561.097656 203.359375 C 557.347656 208.714844 554.234375 219.96875 555.078125 225.148438 C 556.050781 231.148438 561.199219 239.710938 563.835938 239.710938 C 566.238281 239.710938 570.898438 230.898438 572.21875 223.855469 C 573.320312 217.992188 569.664062 205.898438 565.707031 202.316406 C 563.558594 200.371094 563.121094 200.46875 561.097656 203.359375 M 397.863281 230.804688 C 393.488281 231.980469 385.953125 238.175781 382.988281 243.035156 C 379.175781 249.289062 379.308594 262.679688 383.242188 269.136719 C 388.792969 278.238281 396.757812 283.171875 406.019531 283.242188 C 421.242188 283.355469 432.308594 272.089844 432.308594 256.476562 C 432.308594 242.316406 421.859375 231.125 407.984375 230.421875 C 403.964844 230.214844 399.410156 230.390625 397.863281 230.804688 M 221.535156 241.871094 C 217.75 251.988281 217.875 258.429688 222.035156 267.363281 C 225.398438 274.589844 230.285156 279.003906 231.945312 276.316406 C 233.871094 273.199219 236.867188 261.148438 236.851562 256.578125 C 236.828125 249.105469 229.273438 234.085938 225.535156 234.085938 C 224.9375 234.085938 223.136719 237.589844 221.535156 241.871094 M 582.914062 237.6875 C 576.5 245.839844 575.414062 260.988281 580.40625 272.601562 C 582.722656 277.992188 582.800781 278.039062 585.621094 275.488281 C 593.371094 268.472656 595.941406 250 590.652344 239.359375 C 589.210938 236.460938 587.519531 234.085938 586.890625 234.085938 C 586.261719 234.085938 584.46875 235.707031 582.914062 237.6875 M 542.050781 269.410156 C 547.453125 280.003906 558.523438 287.414062 569.023438 287.476562 C 575.078125 287.511719 575.960938 284.910156 571.882812 279.035156 C 565.6875 270.101562 554.328125 263.609375 544.890625 263.609375 L 539.089844 263.609375 Z M 198.398438 284.300781 C 196.738281 285.960938 197.554688 299.710938 199.75 307.109375 C 201.242188 312.140625 204.050781 316.796875 208.375 321.421875 C 215.921875 329.488281 219.296875 330.171875 220.554688 323.882812 C 223.621094 308.546875 217.148438 294.5 202.96875 285.726562 C 200.929688 284.46875 198.875 283.824219 198.398438 284.300781 M 609.332031 285.851562 C 600.492188 291.601562 596.476562 296.222656 593.871094 303.636719 C 592.382812 307.871094 591.167969 312.777344 591.171875 314.535156 C 591.183594 319.027344 593.890625 328.277344 595.195312 328.277344 C 597.726562 328.277344 607.589844 318.332031 610.695312 312.648438 C 613.214844 308.042969 614.234375 303.558594 614.738281 294.886719 C 615.109375 288.511719 614.863281 283.335938 614.183594 283.394531 C 613.507812 283.449219 611.324219 284.558594 609.332031 285.851562 M 251.472656 301.128906 C 245.585938 302.285156 237.210938 311.113281 234.09375 319.449219 C 230.554688 328.898438 231.226562 333.898438 236.03125 333.898438 C 245.007812 333.898438 257.515625 316.792969 257.875 304.027344 C 257.984375 300.152344 257.523438 299.945312 251.472656 301.128906 M 554.183594 305.28125 C 554.574219 308.265625 556.167969 313.703125 557.730469 317.371094 C 560.632812 324.175781 569.894531 333.898438 573.480469 333.898438 C 574.574219 333.898438 576.472656 334.285156 577.695312 334.753906 C 581.277344 336.128906 580.652344 323.292969 576.753906 315.582031 C 573.347656 308.832031 564.734375 302.113281 557.683594 300.703125 C 553.507812 299.871094 553.480469 299.90625 554.183594 305.28125 M 555.480469 342.757812 C 551.554688 357.398438 559.140625 375.929688 571.753906 382.523438 C 575.949219 384.710938 576.347656 384.402344 577.75 377.859375 C 580.234375 366.273438 572.605469 349.914062 561.4375 342.890625 L 556.308594 339.667969 Z M 245.171875 347.542969 C 235.074219 356.984375 231.296875 367.121094 234.054688 377.363281 C 234.945312 380.675781 236.449219 383.105469 237.605469 383.105469 C 241.226562 383.105469 249.929688 374.125 253.273438 366.945312 C 257.472656 357.933594 257.648438 340.929688 253.542969 340.929688 C 252.828125 340.929688 249.058594 343.90625 245.171875 347.542969 M 187.6875 345.3125 C 187.675781 351.28125 192.359375 361.921875 197.46875 367.523438 C 203.339844 373.960938 212.9375 379.289062 217.5 378.640625 C 220.433594 378.226562 220.714844 377.5 220.539062 370.789062 C 220.371094 364.5 219.570312 362.449219 215.175781 357.089844 C 209.246094 349.851562 200.007812 343.964844 192.722656 342.785156 C 188.136719 342.039062 187.695312 342.261719 187.6875 345.3125 M 256.042969 389.089844 C 250.046875 396.949219 248.164062 401.828125 248.152344 409.519531 C 248.144531 417.503906 252.425781 428.089844 255.660156 428.089844 C 261.496094 428.089844 268.472656 412.921875 267.332031 402.710938 C 266.53125 395.53125 262.523438 384.507812 260.714844 384.507812 C 260.066406 384.507812 257.964844 386.570312 256.042969 389.089844 M 547.867188 389.78125 C 546.296875 393.253906 545.488281 398.652344 545.5 405.597656 C 545.515625 414.816406 546.015625 416.875 549.480469 422.007812 C 554.210938 429.019531 556.550781 430.167969 559.6875 427.03125 C 566.035156 420.683594 567.535156 408.554688 563.125 399.269531 C 560.5 393.738281 553.039062 384.507812 551.191406 384.507812 C 550.675781 384.507812 549.179688 386.882812 547.867188 389.78125 M 276.578125 428.441406 C 274.398438 431.117188 272.058594 440.773438 272.066406 447.066406 C 272.070312 453.160156 277.183594 465.554688 280.984375 468.699219 C 283.015625 470.382812 283.71875 470.3125 286.074219 468.179688 C 293.429688 461.519531 293.492188 445.230469 286.203125 433.875 C 281.53125 426.589844 279.171875 425.257812 276.578125 428.441406 M 527.90625 432.523438 C 522.503906 439.980469 520.476562 447.59375 521.667969 455.929688 C 522.605469 462.472656 526.785156 468.859375 530.128906 468.859375 C 532.726562 468.859375 538.675781 461.199219 540.589844 455.394531 C 541.5625 452.449219 541.882812 447.855469 541.351562 444.523438 C 540.199219 437.328125 535.582031 426.683594 533.613281 426.683594 C 532.800781 426.683594 530.234375 429.3125 527.90625 432.523438 M 304.753906 461.476562 C 304.160156 463.605469 303.679688 469.457031 303.683594 474.480469 C 303.691406 485.429688 306.75 491.578125 314.984375 497.21875 C 320.40625 500.929688 320.609375 500.960938 323.195312 498.417969 C 326.800781 494.875 326.910156 482.691406 323.414062 475.421875 C 320.925781 470.257812 309.226562 457.613281 306.9375 457.613281 C 306.332031 457.613281 305.351562 459.351562 304.753906 461.476562 M 499.835938 462.65625 C 488.210938 473.160156 483.992188 489.769531 490.640625 498.84375 C 492.234375 501.015625 493.035156 501.152344 495.804688 499.726562 C 500.546875 497.285156 506.570312 489.988281 508.398438 484.476562 C 510.203125 479.027344 509.320312 460.960938 507.144531 458.785156 C 506.167969 457.808594 503.835938 459.042969 499.835938 462.65625 M 394.53125 461.617188 L 385.574219 463.800781 L 386.414062 471.839844 C 387.0625 478.058594 389.207031 483.480469 395.886719 495.808594 C 400.632812 504.566406 404.996094 512.253906 405.574219 512.886719 C 406.15625 513.519531 410.828125 506.277344 415.953125 496.789062 C 424.320312 481.3125 425.277344 478.722656 425.277344 471.578125 L 425.277344 463.613281 L 415.789062 461.3125 C 410.570312 460.046875 405.667969 459.105469 404.894531 459.222656 C 404.121094 459.339844 399.457031 460.417969 394.53125 461.617188 M 350.050781 480.636719 C 342.355469 492.378906 345.027344 510.386719 355.40625 516.710938 C 362.25 520.886719 364.289062 520.273438 366.652344 513.339844 C 370.070312 503.308594 365.886719 489.789062 356.648438 481.015625 L 352.425781 477.007812 Z M 455.734375 481.710938 C 446.429688 490.75 442.25 506.363281 446.589844 515.886719 C 450.175781 523.753906 461.40625 517.03125 465.285156 504.695312 C 467.980469 496.125 467.410156 489.390625 463.328125 481.613281 L 460.796875 476.796875 Z M 259.914062 496.140625 C 255.949219 497.988281 252.320312 500.125 251.84375 500.890625 C 250.71875 502.714844 258.496094 508.496094 266.097656 511.484375 C 277.078125 515.800781 293.171875 513.84375 300.386719 507.3125 C 302.683594 505.238281 302.589844 504.90625 298.824219 501.738281 C 287.714844 492.390625 272.632812 490.21875 259.914062 496.140625 M 523.933594 495.578125 C 514.011719 500.078125 509.257812 503.972656 511.046875 506.128906 C 514.378906 510.140625 525.054688 513.84375 533.300781 513.84375 C 543.09375 513.84375 548.984375 512.027344 557.128906 506.488281 L 563.160156 502.386719 L 559.941406 499.925781 C 550.433594 492.648438 534.597656 490.738281 523.933594 495.578125 M 316.328125 525.550781 C 309.203125 528.347656 303.832031 531.683594 300.195312 535.574219 C 297.265625 538.710938 297.042969 539.507812 298.789062 540.625 C 306.5 545.558594 327.074219 546.285156 336.054688 541.9375 C 341.222656 539.4375 349.363281 532.105469 349.363281 529.957031 C 349.363281 529.523438 346.675781 527.949219 343.390625 526.460938 C 336.589844 523.375 323.042969 522.917969 316.328125 525.550781 M 470.96875 525.835938 C 467.875 526.949219 465.183594 527.871094 464.992188 527.882812 C 464.800781 527.894531 464.640625 528.777344 464.640625 529.84375 C 464.640625 532.644531 472.992188 540.550781 478.390625 542.867188 C 487.730469 546.875 515.25 544.28125 515.25 539.394531 C 515.25 537.035156 507.207031 530.746094 499.785156 527.300781 C 490.875 523.164062 479.921875 522.609375 470.96875 525.835938 M 283.289062 630.449219 L 283.289062 662.863281 L 296.3125 662.863281 L 295.648438 652.546875 C 295.046875 643.167969 295.292969 641.878906 298.378906 638.292969 L 301.769531 634.351562 L 305.6875 639.117188 C 307.839844 641.738281 312.75 647.996094 316.597656 653.019531 C 323.480469 662.011719 323.710938 662.164062 330.933594 662.585938 L 338.277344 663.011719 L 324.84375 645.949219 C 317.453125 636.5625 311.40625 628.101562 311.40625 627.152344 C 311.40625 626.199219 317.417969 619.527344 324.761719 612.324219 C 332.105469 605.121094 338.117188 598.996094 338.117188 598.710938 C 338.117188 598.425781 335.066406 598.195312 331.332031 598.195312 C 324.605469 598.195312 324.433594 598.3125 310.632812 612.253906 C 302.980469 619.984375 296.386719 626.3125 295.980469 626.3125 C 295.574219 626.3125 295.238281 620.144531 295.238281 612.605469 L 295.238281 598.898438 L 289.265625 598.464844 L 283.289062 598.03125 Z M 347.660156 628.6875 C 347.4375 645.550781 347.480469 660.136719 347.757812 661.105469 C 348.046875 662.125 350.5625 662.863281 353.757812 662.863281 L 359.257812 662.863281 L 358.878906 630.878906 L 358.5 598.898438 L 353.28125 598.464844 L 348.066406 598.03125 Z M 376.074219 630.429688 L 376.074219 662.667969 L 379.238281 663.113281 C 380.976562 663.363281 390.78125 663.371094 401.027344 663.136719 L 419.65625 662.710938 L 419.65625 653.019531 L 387.320312 653.019531 L 387.320312 598.195312 L 376.074219 598.195312 Z M 444.257812 601.230469 C 428.292969 609.496094 421.75 624.136719 426.457031 641.070312 C 429.808594 653.125 444.308594 664.222656 456.746094 664.253906 C 474.890625 664.300781 491.351562 648.589844 491.351562 631.230469 C 491.351562 624.667969 487.601562 614.867188 482.917969 609.183594 C 474.214844 598.625 456.378906 594.953125 444.257812 601.230469 M 511.734375 600.582031 C 506.527344 603.394531 504.441406 606.015625 502.738281 611.902344 C 499.566406 622.878906 506.40625 631.421875 522.113281 636.101562 C 535.71875 640.152344 539.652344 645.371094 533.375 651.046875 C 529.257812 654.769531 518.664062 654.484375 511.847656 650.460938 C 508.992188 648.777344 506.445312 647.398438 506.195312 647.398438 C 505.941406 647.398438 504.660156 649.03125 503.351562 651.03125 C 501.109375 654.453125 501.113281 654.820312 503.421875 657.371094 C 506.328125 660.585938 517.941406 664.28125 524.996094 664.238281 C 542.261719 664.128906 553.058594 646.683594 543.429688 634.445312 C 540.550781 630.78125 533.484375 627.292969 524.171875 624.9375 C 515.816406 622.828125 511.792969 619.226562 512.894531 614.839844 C 514.589844 608.097656 523.808594 606.25 532.824219 610.847656 C 539.777344 614.390625 539.492188 614.429688 542.347656 609.601562 C 545.011719 605.089844 544.640625 604.480469 536.757812 600.476562 C 530.925781 597.515625 517.3125 597.574219 511.734375 600.582031 M 446.222656 612.632812 C 428.339844 624.574219 436.605469 653.019531 457.953125 653.019531 C 466.03125 653.019531 471.296875 650.339844 475.464844 644.101562 C 483.046875 632.75 479.429688 616.945312 467.898438 611.019531 C 462.542969 608.269531 451.527344 609.089844 446.222656 612.632812 "/></g></svg>